<svg xmlns="http://www.w3.org/2000/svg" width="29.315" height="29.315" viewBox="0 0 29.315 29.315">
    <g id="Сгруппировать_499" data-name="Сгруппировать 499" transform="translate(-7010.315 -3426.954)">
        <g id="Сгруппировать_498" data-name="Сгруппировать 498">
            <path id="Контур_452" data-name="Контур 452" d="M7024.972,3426.954a14.657,14.657,0,1,0,14.658,14.657A14.657,14.657,0,0,0,7024.972,3426.954Zm0,25.979a11.322,11.322,0,1,1,11.322-11.322A11.323,11.323,0,0,1,7024.972,3452.933Z" fill="#999"/>
        </g>
        <path id="Контур_453" data-name="Контур 453" d="M7029.3,3444a1.461,1.461,0,0,1-.38-.05l-4.724-1.273a1.455,1.455,0,0,1-1.076-1.4V3434a1.454,1.454,0,0,1,2.909,0v6.157l3.648.983a1.454,1.454,0,0,1-.377,2.858Z" fill="#999"/>
    </g>
</svg>
