<svg xmlns="http://www.w3.org/2000/svg" width="17.729" height="25.498" viewBox="0 0 17.729 25.498">
    <g transform="translate(-2216.549 -1273.365)">
        <g>
            <path d="M2225.4,1298.863c-.763-1.165-1.5-2.286-2.233-3.409-1.552-2.377-3.109-4.752-4.651-7.136a11.018,11.018,0,0,1-1.95-6.773,8.861,8.861,0,0,1,17.572-.806,9.3,9.3,0,0,1-.892,5.806,80.063,80.063,0,0,1-4.582,7.333c-.99,1.576-2.031,3.12-3.051,4.677C2225.558,1298.643,2225.5,1298.727,2225.4,1298.863Z"
                  fill="#ff1b0e"/>
        </g>
        <path d="M2229.628,1279.327l-.01-.013a.785.785,0,0,0-1.1-.125l-2.279,1.813a1.038,1.038,0,0,1-1.037.151l-3.031-1.22a.786.786,0,0,0-1.022.435l-.058.144a.786.786,0,0,0,.435,1.022l2.846,1.146a1.043,1.043,0,0,1,.648.87l.291,3.164a.785.785,0,0,0,.854.71l.154-.014a.785.785,0,0,0,.71-.854l-.231-2.512-.068-.953a1.05,1.05,0,0,1,.383-.756l2.393-1.9A.785.785,0,0,0,2229.628,1279.327Zm-.63.453-2.45,1.848a1.947,1.947,0,0,0-.419.437h0a1.621,1.621,0,0,0-.249.516l0,0a1.913,1.913,0,0,0-.064.283l-.007.036h0a1.906,1.906,0,0,0-.012.426l.274,3.093a.14.14,0,0,1-.127.152h0a.139.139,0,0,1-.151-.127l-.265-2.989a1.913,1.913,0,0,0-1.149-1.589l-2.821-1.218a.161.161,0,0,1-.084-.211v0a.161.161,0,0,1,.211-.084l2.854,1.232a1.915,1.915,0,0,0,1.911-.229l2.383-1.8a.14.14,0,0,1,.2.028l0,0A.14.14,0,0,1,2229,1279.78Z"
              fill="#fff"/>
    </g>
</svg>
