<svg xmlns="http://www.w3.org/2000/svg" width="1198.927" height="234.061" viewBox="0 0 1198.927 234.061">
  <g id="Сгруппировать_6" data-name="Сгруппировать 6" transform="translate(-220.652 -1062.302)">
    <g id="Сгруппировать_5" data-name="Сгруппировать 5">
      <g id="Сгруппировать_2" data-name="Сгруппировать 2">
        <path id="Контур_1" data-name="Контур 1" d="M443.84,1167.074v35.861a19.345,19.345,0,0,0,19.345,19.345h36.73a19.345,19.345,0,0,0,19.345-19.345v-35.861a19.345,19.345,0,0,0-19.345-19.345h-36.73A19.345,19.345,0,0,0,443.84,1167.074Zm53.673,38.255H465.587V1164.68h31.926Z" fill="#ff1b0e"/>
        <path id="Контур_2" data-name="Контур 2" d="M617.41,1147.729a18.523,18.523,0,0,0-18.522,18.522v56.029h21.747v-16.951h31.538v16.951H673.92v-74.551Zm3.225,40.555v-23.6h31.538v23.6Z" fill="#ff1b0e"/>
        <path id="Контур_3" data-name="Контур 3" d="M786.99,1147.729H678.916v74.551h19.807v-55.061h31.539v55.061h23.816v-55.061h32.114v55.061H806v-55.541A19.01,19.01,0,0,0,786.99,1147.729Z" fill="#ff1b0e"/>
        <path id="Контур_4" data-name="Контур 4" d="M546,1196.4l17.756,25.885H591.38l-25.958-37.839,28.39-37.886H566.638L546,1174.1v-27.542H524.256v75.726H546Z" fill="#ff1b0e"/>
        <path id="Контур_5" data-name="Контур 5" d="M914.286,1194.209h7.241l15.951,28.071h24.645l-15.946-28.071h2.951a17.017,17.017,0,0,0,17.021-17.022v-12.436a17.017,17.017,0,0,0-17.021-17.022H890.471v74.551h23.815Zm0-29.729h25.15a6.424,6.424,0,0,1,6.424,6.424v.13a6.424,6.424,0,0,1-6.424,6.424h-25.15Z" fill="#ff1b0e"/>
        <path id="Контур_6" data-name="Контур 6" d="M994.067,1205.329h29.975v16.951h22.629v-74.551H990.492a19.053,19.053,0,0,0-19.053,19.053v55.5h22.628Zm0-40.555h29.975v23.51H994.067Z" fill="#ff1b0e"/>
        <path id="Контур_7" data-name="Контур 7" d="M864.762,1146.554v56.914a1.861,1.861,0,0,1-1.861,1.861H836.46a1.861,1.861,0,0,1-1.861-1.861v-56.914H810.784v53.873A23.288,23.288,0,0,0,834,1223.643h52.074v-77.089Z" fill="#ff1b0e"/>
        <g id="Сгруппировать_1" data-name="Сгруппировать 1">
          <path id="Контур_8" data-name="Контур 8" d="M459.937,1070.9l-.275-.346a21.861,21.861,0,0,0-30.72-3.495l-63.428,50.48a28.978,28.978,0,0,1-28.871,4.207L252.3,1087.777a21.861,21.861,0,0,0-28.446,12.115l-1.612,4a21.86,21.86,0,0,0,12.113,28.441l79.194,31.893a28.98,28.98,0,0,1,18.032,24.228l8.1,88.045a21.861,21.861,0,0,0,23.775,19.766l4.295-.4a21.86,21.86,0,0,0,19.762-23.77l-7.164-77.919-24.809-32.776a53.206,53.206,0,0,0-2.293,20.771l7.619,86.1a3.884,3.884,0,0,1-3.526,4.212l-.078.007a3.884,3.884,0,0,1-4.213-3.526l-7.374-83.207A53.286,53.286,0,0,0,313.7,1141.54l-78.529-33.889a4.468,4.468,0,0,1-2.332-5.87l.036-.083a4.467,4.467,0,0,1,5.872-2.333l79.42,34.274a53.285,53.285,0,0,0,53.2-6.382l66.318-50.017a3.889,3.889,0,0,1,5.449.766l.047.062a3.89,3.89,0,0,1-.765,5.445l-68.186,51.426a53.242,53.242,0,0,0-15.191,17.966l15.048-3.314,9.25,12.331a28.933,28.933,0,0,1,6.505-7.3l66.6-53.005A21.86,21.86,0,0,0,459.937,1070.9Z" fill="#fff"/>
        </g>
        <path id="Контур_9" data-name="Контур 9" d="M398.854,1174.378l-21.064-27.824h-27.27l37.085,48.995v27.707h21.747V1196.63l37.523-50.076H419.7Z" fill="#ff1b0e"/>
      </g>
      <g id="Сгруппировать_4" data-name="Сгруппировать 4">
        <g id="Сгруппировать_3" data-name="Сгруппировать 3">
          <path id="Контур_10" data-name="Контур 10" d="M1402.192,1147.748h-58.244v73.983H1367.9v-28.355h34.3a17.387,17.387,0,0,0,17.387-17.388v-10.852A17.387,17.387,0,0,0,1402.192,1147.748Zm-3.21,23.875a4.994,4.994,0,0,1-4.994,4.994H1367.9v-12.11h26.091a4.994,4.994,0,0,1,4.994,4.994Z" fill="#fff"/>
          <path id="Контур_11" data-name="Контур 11" d="M1178.708,1176.617H1125.89v-6.163h50.71v-22.706h-64.008a10.6,10.6,0,0,0-10.6,10.6v35.031h54.656v6.812h-54.656v21.543h66.024a10.69,10.69,0,0,0,10.689-10.69Z" fill="#fff"/>
          <path id="Контур_12" data-name="Контур 12" d="M1236.635,1176.617H1206.36v-28.869h-22.868v73.983h22.868v-28.355h30.275v28.355h22.922v-73.983h-22.922Z" fill="#fff"/>
          <path id="Контур_13" data-name="Контур 13" d="M1263.309,1167.074v35.861a19.345,19.345,0,0,0,19.344,19.345h36.731a19.345,19.345,0,0,0,19.345-19.345v-35.861a19.345,19.345,0,0,0-19.345-19.345h-36.731A19.345,19.345,0,0,0,1263.309,1167.074Zm53.673,38.255h-31.927V1164.68h31.927Z" fill="#fff"/>
        </g>
      </g>
      <rect id="Прямоугольник_2" data-name="Прямоугольник 2" width="23" height="23" transform="translate(1063.5 1200.643)" fill="#ff1b0e"/>
    </g>
  </g>
</svg>
