<svg xmlns="http://www.w3.org/2000/svg" xmlns:xlink="http://www.w3.org/1999/xlink" width="1599.5" height="504" viewBox="0 0 1599.5 504">
    <defs>
        <clipPath id="clip-path">
            <rect id="Прямоугольник_63" data-name="Прямоугольник 63" width="1599.5" height="504" transform="translate(5636.5 4883.756)" fill="none"/>
        </clipPath>
    </defs>
    <g id="Сгруппировать_200" data-name="Сгруппировать 200" transform="translate(-5636.5 -4883.756)" clip-path="url(#clip-path)">
        <g id="Сгруппировать_199" data-name="Сгруппировать 199" opacity="0.68">
            <g id="Сгруппировать_198" data-name="Сгруппировать 198">
                <path id="Контур_134" data-name="Контур 134" d="M5750.517,5361.071h126.369V5213.847l147.339-283.978H5880.2l-66.219,163.241-66.221-163.241H5603.73l146.787,283.978Z" fill="#e8e8e8" opacity="0.5"/>
                <path id="Контур_135" data-name="Контур 135" d="M6419.333,5145.47c0-123.816-70.083-225.457-209.144-225.457s-209.145,101.641-209.145,225.457,70.083,225.457,209.145,225.457S6419.333,5269.286,6419.333,5145.47Zm-287.5,0c0-59.136,28.695-96.712,78.36-96.712s78.359,37.576,78.359,96.712-28.695,96.712-78.359,96.712S6131.829,5204.606,6131.829,5145.47Z" fill="#e8e8e8" opacity="0.5"/>
                <path id="Контур_136" data-name="Контур 136" d="M6589.293,5207.071h29.247l82.222,154h261.009l17.107-57.289h133.543l16.556,57.289H7258.1l-144.029-431.2H6977.223l-141.445,421.851-114.6-208.1,117.54-213.752H6698.555L6621.3,5082.638h-32.006V4929.87H6461.819v431.2h127.474Zm445.872-97.945a473.333,473.333,0,0,0,10.485-55.44,375.2,375.2,0,0,0,11.037,55.44l27.039,91.784h-75.6Z" fill="#e8e8e8" opacity="0.5"/>
            </g>
        </g>
    </g>
</svg>
