<svg xmlns="http://www.w3.org/2000/svg" width="309.523" height="87.707" viewBox="0 0 309.523 87.707">
    <g id="Сгруппировать_371" data-name="Сгруппировать 371" transform="translate(-56.223 -4418.923)">
        <path id="Контур_168" data-name="Контур 168" d="M139.855,4458.183v13.438a7.25,7.25,0,0,0,7.249,7.249h13.764a7.25,7.25,0,0,0,7.249-7.249v-13.438a7.249,7.249,0,0,0-7.249-7.248H147.1A7.249,7.249,0,0,0,139.855,4458.183Zm20.113,14.335H148v-15.232h11.964Z" fill="#ff1b0e"/>
        <path id="Контур_169" data-name="Контур 169" d="M204.9,4450.935a6.94,6.94,0,0,0-6.94,6.94v21H206.1v-6.352h11.818v6.352h8.149v-27.935Zm1.208,15.2v-8.845h11.818v8.845Z" fill="#ff1b0e"/>
        <path id="Контур_170" data-name="Контур 170" d="M268.439,4450.935h-40.5v27.935h7.422v-20.632h11.818v20.632h8.924v-20.632H268.14v20.632h7.422v-20.812A7.123,7.123,0,0,0,268.439,4450.935Z" fill="#ff1b0e"/>
        <path id="Контур_171" data-name="Контур 171" d="M178.137,4469.17l6.654,9.7h10.35l-9.727-14.179,10.638-14.2H185.87l-7.732,10.32v-10.32h-8.149v28.375h8.149Z" fill="#ff1b0e"/>
        <path id="Контур_172" data-name="Контур 172" d="M316.139,4468.351h2.714l5.977,10.519h9.234l-5.975-10.519H329.2a6.376,6.376,0,0,0,6.378-6.378v-4.66a6.376,6.376,0,0,0-6.378-6.378h-21.98v27.935h8.924Zm0-11.14h9.424a2.407,2.407,0,0,1,2.407,2.408v.048a2.406,2.406,0,0,1-2.407,2.407h-9.424Z" fill="#ff1b0e"/>
        <path id="Контур_173" data-name="Контур 173" d="M346.035,4472.518h11.232v6.352h8.479v-27.935H344.7a7.139,7.139,0,0,0-7.14,7.139v20.8h8.48Zm0-15.2h11.232v8.809H346.035Z" fill="#ff1b0e"/>
        <path id="Контур_174" data-name="Контур 174" d="M297.582,4450.494v21.327a.7.7,0,0,1-.7.7h-9.908a.7.7,0,0,1-.7-.7v-21.327h-8.924v20.187a8.727,8.727,0,0,0,8.7,8.7h19.513v-28.887Z" fill="#ff1b0e"/>
        <g id="Сгруппировать_370" data-name="Сгруппировать 370">
            <path id="Контур_175" data-name="Контур 175" d="M145.887,4422.145l-.1-.13a8.191,8.191,0,0,0-11.511-1.309L110.5,4439.621a10.859,10.859,0,0,1-10.818,1.577l-31.606-12.729a8.191,8.191,0,0,0-10.659,4.54l-.6,1.5a8.192,8.192,0,0,0,4.539,10.657l29.675,11.951a10.858,10.858,0,0,1,6.757,9.078l3.034,32.992a8.192,8.192,0,0,0,8.909,7.407l1.609-.149a8.191,8.191,0,0,0,7.406-8.907l-2.685-29.2-9.3-12.282a19.924,19.924,0,0,0-.86,7.783l2.855,32.262a1.455,1.455,0,0,1-1.321,1.578l-.029,0a1.456,1.456,0,0,1-1.579-1.322l-2.763-31.179a19.967,19.967,0,0,0-11.978-16.57l-29.426-12.7a1.675,1.675,0,0,1-.874-2.2l.014-.031a1.673,1.673,0,0,1,2.2-.874l29.76,12.843a19.969,19.969,0,0,0,19.935-2.392l24.85-18.742a1.457,1.457,0,0,1,2.042.287l.018.023a1.458,1.458,0,0,1-.287,2.04l-25.551,19.271a19.947,19.947,0,0,0-5.692,6.732l5.639-1.242,3.466,4.621a10.819,10.819,0,0,1,2.438-2.737l24.955-19.862A8.191,8.191,0,0,0,145.887,4422.145Z" fill="#fff"/>
        </g>
        <path id="Контур_176" data-name="Контур 176" d="M123,4460.92l-7.893-10.426H104.886l13.9,18.359v10.382h8.149v-9.977l14.061-18.764H130.81Z" fill="#ff1b0e"/>
    </g>
</svg>
