<svg xmlns="http://www.w3.org/2000/svg" width="44.398" height="44.587" viewBox="0 0 44.398 44.587">
    <g transform="translate(-3149.545 -2288.548)">
        <path d="M3156.038,2295.029a21.91,21.91,0,0,0-6.493,15.625c.008,16.811,18.132,27.344,32.817,19.412l10.913,3.069-2.295-11.448a21.987,21.987,0,0,0,2.963-11.044c-.009-19.48-23.649-29.5-37.933-15.687Zm-2.781,15.564A18.454,18.454,0,0,1,3171.7,2292.2a18.4,18.4,0,0,1,15.654,28.136l-.444.7,1.867,6.771-6.967-1.811-.669.4c-12.311,7.238-27.877-1.618-27.888-15.8Z" fill="#fff"/>
        <line x2="17.11" transform="translate(3163.344 2307.013)" fill="none" stroke="#fff" stroke-linecap="round" stroke-miterlimit="10" stroke-width="3.366"/>
        <line x2="17.11" transform="translate(3163.344 2314.586)" fill="none" stroke="#fff" stroke-linecap="round" stroke-miterlimit="10" stroke-width="3.366"/>
    </g>
</svg>
