<svg xmlns="http://www.w3.org/2000/svg" width="32.58" height="24.584" viewBox="0 0 32.58 24.584">
    <g id="Сгруппировать_495" data-name="Сгруппировать 495" transform="translate(-7008.721 -3370.126)">
        <path id="Контур_450" data-name="Контур 450" d="M7025.012,3370.126a16.369,16.369,0,0,0-16.291,16.446,15.852,15.852,0,0,0,2.126,8.137h28.323a17.218,17.218,0,0,0,2.131-8.138A16.368,16.368,0,0,0,7025.012,3370.126Zm12.963,22.581-25.875-.011a14.365,14.365,0,1,1,27.312-6.176A13.869,13.869,0,0,1,7037.975,3392.707Z" fill="#ff1b0e"/>
        <path id="Контур_451" data-name="Контур 451" d="M7029.615,3374.494h-.2l-4.345,8.515-4.5-8.588-6.164,15.514h-1.593v1.246h8.726v-1.246H7019.8l1.731-4.849,3.532,6.094,3.394-6.094,1.731,4.849h-1.731v1.246h8.657v-1.246h-1.5Z" fill="#ff1b0e"/>
    </g>
</svg>
