<svg xmlns="http://www.w3.org/2000/svg" width="595.377" height="175.483" viewBox="0 0 595.377 175.483">
    <g id="Сгруппировать_112" data-name="Сгруппировать 112" transform="translate(-4759.251 -7387.162)">
        <path id="Контур_99" data-name="Контур 99" d="M4796.306,7387.162c22.944,0,34.507,14.822,34.507,32.877s-11.563,32.877-34.507,32.877-34.506-14.821-34.506-32.877S4773.362,7387.162,4796.306,7387.162Zm0,18.774c-8.194,0-12.928,5.48-12.928,14.1s4.734,14.1,12.928,14.1,12.929-5.479,12.929-14.1S4804.5,7405.936,4796.306,7405.936Z" fill="#fff" opacity="0.84"/>
        <path id="Контур_100" data-name="Контур 100" d="M4845.645,7451.479v-28.027h-11.289v-15.091h41.7v15.091h-11.29v28.027Z" fill="#fff" opacity="0.84"/>
        <path id="Контур_101" data-name="Контур 101" d="M4881.148,7451.479v-43.118h19.211v13.834h2.822l7.739-13.834h20.85l-13.475,21.29,13.93,21.828h-20.85l-8.285-14.552h-2.731v14.552Z" fill="#fff" opacity="0.84"/>
        <path id="Контур_102" data-name="Контур 102" d="M4966.633,7406.924c13.93,0,20.03,11.139,20.03,23s-6.1,23-20.03,23c-5.281,0-9.287-1.707-11.927-4.042v22.367H4935.5v-62.88h16.843v5.211A18.066,18.066,0,0,1,4966.633,7406.924Zm-6.373,15.181a6.7,6.7,0,0,0-5.645,3.054v9.522a6.571,6.571,0,0,0,5.645,3.054c4.643,0,6.647-3.953,6.647-7.815S4964.9,7422.1,4960.26,7422.1Z" fill="#fff" opacity="0.84"/>
        <path id="Контур_103" data-name="Контур 103" d="M5015.7,7406.924c13.657,0,25.22,7.456,25.22,23s-11.563,23-25.22,23-25.128-7.456-25.128-23S5002.044,7406.924,5015.7,7406.924Zm0,15.63c-4.734,0-6.373,3.324-6.373,7.366s1.639,7.366,6.373,7.366c4.825,0,6.464-3.324,6.464-7.366S5020.526,7422.554,5015.7,7422.554Z" fill="#fff" opacity="0.84"/>
        <path id="Контур_104" data-name="Контур 104" d="M5046.559,7451.479v-43.118h18.027v17.427l14.567-17.427h15.023v43.118h-18.027v-17.427l-14.568,17.427Zm23.763-47.25a30.884,30.884,0,0,1-15.2-3.683V7388.42c4.37,2.335,10.106,3.233,15.2,3.233,5.189,0,10.834-.9,15.3-3.233v12.126A31,31,0,0,1,5070.322,7404.229Z" fill="#fff" opacity="0.84"/>
        <path id="Контур_105" data-name="Контур 105" d="M5118.2,7451.479v-43.118h15.66l11.745,18.505,11.836-18.505H5173.1v43.118h-17.389v-18.145l-6.737,10.6h-6.647l-6.737-10.6v18.145Z" fill="#fff" opacity="0.84"/>
        <path id="Контур_106" data-name="Контур 106" d="M5180.563,7451.479v-43.118h18.027v17.427l14.567-17.427h15.022v43.118h-18.027v-17.427l-14.567,17.427Z" fill="#fff" opacity="0.84"/>
        <path id="Контур_107" data-name="Контур 107" d="M5266.777,7406.924c13.93,0,20.03,11.139,20.03,23s-6.1,23-20.03,23c-5.281,0-9.287-1.707-11.927-4.042v22.367h-19.211v-62.88h16.844v5.211A18.063,18.063,0,0,1,5266.777,7406.924ZM5260.4,7422.1a6.7,6.7,0,0,0-5.645,3.054v9.522a6.573,6.573,0,0,0,5.645,3.054c4.643,0,6.646-3.953,6.646-7.815S5265.047,7422.1,5260.4,7422.1Z" fill="#fff" opacity="0.84"/>
        <path id="Контур_108" data-name="Контур 108" d="M5309.1,7451.479v-43.118h28.042c13.384,0,16.024,7.007,16.024,11.409,0,4.94-2.276,8.263-6.646,10.061,5.463,1.886,8.1,5.3,8.1,10.33,0,4.85-3.095,11.318-16.479,11.318Zm18.027-26.14h4.644c2.367,0,3.823-1.078,3.823-3.055,0-1.886-1.366-3.053-3.823-3.053h-4.644Zm0,15.36h5.281c2.367,0,3.824-1.168,3.824-3.054,0-1.976-1.366-3.054-3.915-3.054h-5.19Z" fill="#fff" opacity="0.84"/>
        <path id="Контур_109" data-name="Контур 109" d="M4784.9,7561.123v-22.739l-25.65-43.858h25.168l11.571,25.212,11.571-25.212h25.168l-25.747,43.858v22.739Z" fill="#ff1b0e"/>
        <path id="Контур_110" data-name="Контур 110" d="M4865.219,7493c24.3,0,36.546,15.7,36.546,34.821s-12.246,34.821-36.546,34.821-36.547-15.7-36.547-34.821S4840.919,7493,4865.219,7493Zm0,19.885c-8.679,0-13.693,5.8-13.693,14.936s5.014,14.937,13.693,14.937,13.693-5.8,13.693-14.937S4873.9,7512.888,4865.219,7512.888Z" fill="#ff1b0e"/>
        <path id="Контур_111" data-name="Контур 111" d="M4909.182,7561.123v-66.6h22.275v23.594h5.593l13.5-23.594h24.493l-20.54,33.013,20.925,33.584h-24.492l-14.368-23.785h-5.111v23.785Z" fill="#ff1b0e"/>
        <path id="Контур_112" data-name="Контур 112" d="M4973.974,7561.123l25.265-66.6h23.914l25.167,66.6h-22.564l-2.893-8.848h-23.335l-2.99,8.848Zm30.664-24.737h13.211l-4.725-14.175a52,52,0,0,1-1.929-8.562,65.537,65.537,0,0,1-1.832,8.562Z" fill="#ff1b0e"/>
        <path id="Контур_113" data-name="Контур 113" d="M5130.374,7494.526v66.6h-21.7v-30.445l-11.089,16.935H5085.92l-11.089-17.03v30.54h-21.7v-66.6H5072.9l18.8,29.112,18.9-29.112Z" fill="#ff1b0e"/>
        <path id="Контур_114" data-name="Контур 114" d="M5202.493,7494.526v40.719c0,20.55-15.332,27.4-31.339,27.4s-31.34-6.85-31.34-27.4v-40.719h22.276V7534.2c0,6.183,3.278,8.752,9.064,8.752,5.882,0,9.16-2.569,9.16-8.752v-39.673Z" fill="#ff1b0e"/>
        <path id="Контур_115" data-name="Контур 115" d="M5211.935,7561.123v-66.6h31.339c14.368,0,28.735,5.327,28.735,23.5,0,10.37-4.821,16.554-11.571,19.884l17.357,23.214H5253.3l-13.886-19.694h-5.207v19.694Zm22.275-36.153h8.582c4.339,0,6.846-2.569,6.846-6.279s-2.507-6.279-6.846-6.279h-8.582Z" fill="#ff1b0e"/>
        <path id="Контур_116" data-name="Контур 116" d="M5276.822,7561.123l25.265-66.6H5326l25.168,66.6H5328.6l-2.894-8.848h-23.335l-2.989,8.848Zm30.665-24.737h13.21l-4.725-14.175a52.1,52.1,0,0,1-1.928-8.562,65.537,65.537,0,0,1-1.832,8.562Z" fill="#ff1b0e"/>
    </g>
</svg>
