<svg xmlns="http://www.w3.org/2000/svg" width="18.036" height="19.837" viewBox="0 0 18.036 19.837">
    <path d="M10209.492,5292.049h-2.51c-.038-.014-.076-.024-.112-.041a.439.439,0,0,1-.257-.449c0-.847,0-1.694,0-2.54v-.128h-3.156a.474.474,0,0,1-.12-.012.428.428,0,0,1-.331-.476c0-.58,0-1.161,0-1.741a.591.591,0,0,1,.061-.259.454.454,0,0,1,.454-.219h3.085v-1.662h-.129c-1.018,0-2.036,0-3.056,0a.4.4,0,0,1-.409-.39c-.01-.181-.008-.363-.008-.546,0-.522,0-1.045,0-1.568a.445.445,0,0,1,.494-.492h3.114v-8.739c0-.041,0-.081,0-.122a.425.425,0,0,1,.467-.45q3.759,0,7.519,0c.286,0,.572.017.858.038a6.405,6.405,0,0,1,1.5.3,5.913,5.913,0,0,1,3.261,2.594,5.966,5.966,0,0,1,.8,2.734,7.4,7.4,0,0,1-.134,1.967,5.657,5.657,0,0,1-2.081,3.349,6.16,6.16,0,0,1-3.851,1.317c-1.656.025-3.312.008-4.969.009h-.121v1.662h7a1.129,1.129,0,0,1,.151.007.413.413,0,0,1,.4.451q0,.9,0,1.8a.423.423,0,0,1-.459.447h-7.1v.128q0,1.266,0,2.53a.414.414,0,0,1-.1.328A1.612,1.612,0,0,1,10209.492,5292.049Zm.379-10.526h.126q2.167,0,4.332,0a4,4,0,0,0,1.232-.167,2.912,2.912,0,0,0,1.924-1.76,3.454,3.454,0,0,0,.165-1.824,2.87,2.87,0,0,0-1.615-2.209,3.792,3.792,0,0,0-1.778-.356h-4.386Z"
          transform="translate(-10203.004 -5272.212)"/>
</svg>
