<svg xmlns="http://www.w3.org/2000/svg" display="none">

    <symbol id="arrow-left" viewBox="0 0 17.626 29.376">
        <path d="M341.419,3308.176a2.929,2.929,0,0,1-2.077-.861l-11.75-11.75a2.936,2.936,0,0,1,0-4.154l11.75-11.751a2.937,2.937,0,0,1,4.154,4.154l-9.672,9.674,9.672,9.673a2.938,2.938,0,0,1-2.077,5.015Z"
              transform="translate(-326.731 -3278.8)"/>
    </symbol>

    <symbol id="arrow-right" viewBox="0 0 17.625 29.376">
        <path d="M1250.2,3278.8a2.928,2.928,0,0,1,2.077.86l11.751,11.751a2.938,2.938,0,0,1,0,4.154l-11.751,11.75a2.937,2.937,0,0,1-4.154-4.154l9.673-9.673-9.673-9.674a2.937,2.937,0,0,1,2.077-5.014Z"
              transform="translate(-1247.267 -3278.8)"/>
    </symbol>

    <symbol id="arrow-bottom" viewBox="0 0 20.391 12.235">
        <path d="M4303.1,9245.337a2.034,2.034,0,0,1-.6,1.441l-8.157,8.155a2.036,2.036,0,0,1-2.883,0l-8.156-8.155a2.039,2.039,0,0,1,2.883-2.884l6.715,6.715,6.714-6.715a2.039,2.039,0,0,1,3.481,1.442Z"
              transform="translate(-4282.707 -9243.297)"/>
    </symbol>


    <symbol id="share" viewBox="0 0 21.926 23.388">
        <path d="M1122.49,4605.468a4.094,4.094,0,0,0-3.3,1.679l-6.48-3.317a3.884,3.884,0,0,0-.121-2.685l6.781-4.08a4.1,4.1,0,1,0-.709-1.173l-6.8,4.092a4.1,4.1,0,1,0,.259,5.082l6.458,3.307a4.054,4.054,0,0,0-.2,1.207,4.111,4.111,0,1,0,4.111-4.112Z"
              transform="translate(-1104.675 -4590.303)"/>
    </symbol>

    <symbol id="instagram" viewBox="0 0 38.3 38.308">
        <g transform="translate(-1134.843 -4496.625)">
            <path d="M1173.045,4507.888a14.024,14.024,0,0,0-.89-4.648,9.807,9.807,0,0,0-5.6-5.6,14.023,14.023,0,0,0-4.647-.891c-2.051-.1-2.7-.12-7.9-.12s-5.852.023-7.9.113a14.006,14.006,0,0,0-4.647.89,9.806,9.806,0,0,0-5.6,5.6,14.031,14.031,0,0,0-.891,4.647c-.1,2.051-.119,2.7-.119,7.9s.022,5.852.112,7.9a14,14,0,0,0,.89,4.647,9.816,9.816,0,0,0,5.6,5.6,14.016,14.016,0,0,0,4.648.89c2.042.09,2.694.113,7.9.113s5.852-.023,7.895-.113a13.976,13.976,0,0,0,4.647-.89,9.8,9.8,0,0,0,5.6-5.6,14.037,14.037,0,0,0,.89-4.647c.09-2.043.113-2.694.113-7.9S1173.135,4509.931,1173.045,4507.888Zm-3.449,15.64a10.516,10.516,0,0,1-.659,3.555,6.356,6.356,0,0,1-3.637,3.637,10.547,10.547,0,0,1-3.555.658c-2.02.09-2.626.112-7.737.112s-5.725-.022-7.738-.112a10.5,10.5,0,0,1-3.555-.658,6.318,6.318,0,0,1-3.629-3.63,10.518,10.518,0,0,1-.659-3.554c-.09-2.021-.112-2.627-.112-7.738s.022-5.725.112-7.738a10.49,10.49,0,0,1,.659-3.555,5.81,5.81,0,0,1,1.437-2.2,5.942,5.942,0,0,1,2.2-1.429,10.541,10.541,0,0,1,3.554-.659c2.021-.089,2.627-.112,7.738-.112s5.725.023,7.738.112a10.507,10.507,0,0,1,3.555.659,6.313,6.313,0,0,1,3.629,3.629,10.559,10.559,0,0,1,.659,3.555c.089,2.02.112,2.626.112,7.738S1169.685,4521.508,1169.6,4523.528Z"/>
            <path d="M1154,4505.942a9.841,9.841,0,1,0,9.841,9.841A9.844,9.844,0,0,0,1154,4505.942Zm0,16.224a6.384,6.384,0,1,1,6.383-6.383A6.383,6.383,0,0,1,1154,4522.166Z"/>
            <path d="M1166.527,4505.553a2.3,2.3,0,1,1-2.3-2.3A2.3,2.3,0,0,1,1166.527,4505.553Z"/>
        </g>
    </symbol>


    <symbol id="vk" viewBox="0 0 51.016 29.76">
        <g transform="translate(-1244.8 -4499.903)">
            <path d="M1287.134,4516.968c-.825-1.042-.589-1.5,0-2.436.011-.011,6.82-9.419,7.521-12.61l0,0c.349-1.163,0-2.017-1.685-2.017H1287.4a2.4,2.4,0,0,0-2.426,1.554s-2.84,6.8-6.857,11.2c-1.3,1.274-1.9,1.682-2.6,1.682-.349,0-.891-.408-.891-1.571V4501.92c0-1.4-.4-2.017-1.573-2.017h-8.771a1.334,1.334,0,0,0-1.42,1.256c0,1.322,2.009,1.626,2.217,5.346v8.072c0,1.768-.321,2.093-1.033,2.093-1.9,0-6.5-6.825-9.226-14.637-.55-1.516-1.088-2.128-2.519-2.128h-5.58c-1.592,0-1.913.733-1.913,1.554,0,1.449,1.9,8.658,8.818,18.181,4.613,6.5,11.109,10.023,17.018,10.023,3.552,0,3.986-.782,3.986-2.128,0-6.211-.321-6.8,1.458-6.8.825,0,2.245.408,5.561,3.544,3.791,3.718,4.413,5.382,6.535,5.382h5.578c1.59,0,2.4-.782,1.932-2.326C1294.625,4524.091,1287.457,4517.414,1287.134,4516.968Z"/>
        </g>
    </symbol>

    <symbol id="youtube" viewBox="0 0 45.255 31.686">
        <g transform="translate(-1363.068 -4499.936)">
            <path d="M1407.391,4504.894a5.668,5.668,0,0,0-3.989-3.989c-3.541-.969-17.707-.969-17.707-.969s-14.165,0-17.706.932a5.786,5.786,0,0,0-3.989,4.026c-.932,3.541-.932,10.885-.932,10.885s0,7.381.932,10.885a5.671,5.671,0,0,0,3.989,3.989c3.578.969,17.707.969,17.707.969s14.165,0,17.706-.932a5.67,5.67,0,0,0,3.99-3.989c.931-3.541.931-10.885.931-10.885S1408.361,4508.435,1407.391,4504.894Zm-26.206,17.669V4509l11.78,6.784Z"/>
        </g>
    </symbol>

    <symbol id="telegram" viewBox="0 0 39.842 33.203">
        <g transform="translate(-1480.036 -4499.049)">
            <path d="M1495.669,4520.931l-.659,9.271a2.306,2.306,0,0,0,1.841-.892l4.421-4.225,9.161,6.709c1.68.936,2.863.443,3.316-1.546l6.013-28.175,0,0c.533-2.484-.9-3.455-2.535-2.846l-35.344,13.532c-2.412.936-2.375,2.281-.41,2.89l9.036,2.811,20.989-13.133c.988-.654,1.886-.292,1.147.362Z"/>
        </g>
    </symbol>


    <symbol id="settings" viewBox="0 0 40.349 39.549">
        <g transform="translate(-1107.109 -4259.36)">
            <path d="M1143.393,4261.665c-1.934.752-3.716,1.414-5.466,2.151a1.414,1.414,0,0,0-.723.876c-.274,1.319-.474,2.657-.632,4a1.213,1.213,0,0,0,.348.917c1.043.9,2.118,1.773,3.23,2.588a1.307,1.307,0,0,0,1.052.128c1.787-.64,3.549-1.346,5.428-2.072a7.635,7.635,0,0,1-.093.867,9.463,9.463,0,0,1-11.679,7.073,1.734,1.734,0,0,0-2.026.669q-5.351,6.125-10.721,12.228c-1.681,1.913-3.35,3.836-5.07,5.713a5.8,5.8,0,0,1-6.079,1.887c-4.055-1.076-5.215-6.362-2-9.412,2.937-2.784,6.035-5.4,9.064-8.085,3.269-2.9,6.548-5.783,9.791-8.71a1.242,1.242,0,0,0,.185-1.025,9.572,9.572,0,0,1,15.388-9.788Zm-11.324,6.482c-.1,1.09.544,1.195,1.214,1.3a.9.9,0,0,0,1.183-.826c.238-1.451.47-2.9.668-4.36.1-.755-.387-.987-1.046-1.1s-1.2-.044-1.332.71C1132.493,4265.351,1132.277,4266.837,1132.069,4268.147Zm-19.57,27.424a2.079,2.079,0,0,0,2.077-2.022,2.108,2.108,0,0,0-2.1-2.1,2.075,2.075,0,0,0-2.017,2.083A2.039,2.039,0,0,0,1112.5,4295.571Z"/>
            <path d="M1128.586,4286.1l5.719-6.432c.452.426.894.823,1.315,1.242q5.281,5.265,10.557,10.538c1.715,1.714,1.707,3.388-.012,5.116-.5.5-.98,1.019-1.505,1.49a3.029,3.029,0,0,1-4.184,0C1136.513,4294.121,1132.6,4290.14,1128.586,4286.1Zm15.645,5.837a7.253,7.253,0,0,0-.59-.743q-4.158-4.174-8.329-8.335c-.13-.13-.247-.32-.4-.366-.261-.075-.729-.161-.791-.056a1.751,1.751,0,0,0-.174.976c.013.168.261.323.412.475q4.164,4.168,8.331,8.332a2.276,2.276,0,0,0,.561.466C1143.714,4292.915,1144.228,4292.586,1144.231,4291.936Zm-12.671-6.781c-.232.189-.6.362-.593.511a1.693,1.693,0,0,0,.368,1.027c2.813,2.858,5.655,5.688,8.492,8.522.355.355.748.754,1.248.278s.142-.884-.221-1.248q-4.286-4.287-8.576-8.568A6.142,6.142,0,0,0,1131.56,4285.155Z"/>
            <path d="M1107.823,4260.768l1.56-1.408c1.541.969,3.169,1.984,4.784,3.02a1.126,1.126,0,0,1,.368.513,10.531,10.531,0,0,0,2.594,3.4c2.51,2.469,4.985,4.974,7.545,7.536l-2.487,2.2c-1.776-1.793-3.518-3.555-5.264-5.312q-1.458-1.467-2.929-2.921a3.591,3.591,0,0,0-1.032-.893,7.024,7.024,0,0,1-3.532-3.547C1108.943,4262.484,1108.374,4261.651,1107.823,4260.768Z"/>
        </g>
    </symbol>

    <symbol id="mail" viewBox="0 0 33.364 25.023">
        <g transform="translate(-1099.851 -4004.8)">
            <g>
                <g>
                    <g>
                        <path d="M1100.547,4006.831c4.579,3.878,12.614,10.7,14.976,12.827a1.393,1.393,0,0,0,2.018,0c2.363-2.129,10.4-8.952,14.977-12.83a.7.7,0,0,0,.1-.96,2.763,2.763,0,0,0-2.182-1.071h-27.8a2.761,2.761,0,0,0-2.182,1.072A.694.694,0,0,0,1100.547,4006.831Z"/>
                        <path d="M1132.812,4008.932a.691.691,0,0,0-.742.1c-5.078,4.3-11.559,9.823-13.6,11.66a2.815,2.815,0,0,1-3.88,0c-2.174-1.959-9.452-8.146-13.6-11.659a.694.694,0,0,0-1.144.53v17.48a2.782,2.782,0,0,0,2.78,2.78h27.8a2.783,2.783,0,0,0,2.781-2.78v-17.48A.7.7,0,0,0,1132.812,4008.932Z"/>
                    </g>
                </g>
            </g>
        </g>
    </symbol>

    <symbol id="phone" viewBox="0 0 35.083 35.083">
        <g transform="translate(-1098.132 -3939.811)">
            <g>
                <g>
                    <g>
                        <path d="M1124.805,3963.019a2.458,2.458,0,0,0-3.716,0c-.869.861-1.738,1.723-2.592,2.6a.511.511,0,0,1-.715.131c-.563-.307-1.161-.555-1.7-.891a26.949,26.949,0,0,1-6.5-5.913,15.422,15.422,0,0,1-2.329-3.73.535.535,0,0,1,.132-.687c.868-.839,1.715-1.7,2.569-2.562a2.468,2.468,0,0,0-.007-3.8c-.679-.686-1.358-1.358-2.037-2.044-.7-.7-1.394-1.409-2.1-2.1a2.474,2.474,0,0,0-3.716.007c-.876.861-1.716,1.745-2.606,2.592a4.227,4.227,0,0,0-1.329,2.854,12.087,12.087,0,0,0,.934,5.205,31.634,31.634,0,0,0,5.614,9.352,34.751,34.751,0,0,0,11.506,9,16.643,16.643,0,0,0,6.373,1.854,4.67,4.67,0,0,0,4.008-1.526c.745-.832,1.584-1.591,2.373-2.387a2.484,2.484,0,0,0,.014-3.782Q1126.9,3965.1,1124.805,3963.019Z"/>
                        <path d="M1123.41,3957.2l2.694-.46a12.09,12.09,0,0,0-10.228-9.921l-.38,2.708a9.348,9.348,0,0,1,7.914,7.673Z"/>
                        <path d="M1127.623,3945.49a19.857,19.857,0,0,0-11.389-5.679l-.38,2.708a17.334,17.334,0,0,1,14.667,14.214l2.694-.46A20.012,20.012,0,0,0,1127.623,3945.49Z"/>
                    </g>
                </g>
            </g>
        </g>
    </symbol>

    <symbol id="whatsapp" viewBox="0 0 32.841 32.842">
        <g transform="translate(-1014.178 -47.342)">
            <path d="M1038.134,66.921l-.012.1c-3.009-1.5-3.324-1.7-3.712-1.116-.27.4-1.056,1.319-1.292,1.59s-.478.287-.884.1a11.087,11.087,0,0,1-3.288-2.032,12.417,12.417,0,0,1-2.272-2.832c-.4-.693.438-.791,1.2-2.236a.75.75,0,0,0-.034-.717c-.1-.206-.919-2.217-1.261-3.019s-.667-.7-.92-.7a2.039,2.039,0,0,0-1.872.471c-2.208,2.427-1.652,4.932.238,7.594,3.714,4.861,5.693,5.756,9.311,7a5.658,5.658,0,0,0,2.572.166,4.215,4.215,0,0,0,2.759-1.951,3.382,3.382,0,0,0,.246-1.95c-.1-.185-.369-.288-.78-.472Z"/>
            <path d="M1042.257,52.063c-10.521-10.172-27.934-2.795-27.941,11.554a16.19,16.19,0,0,0,2.183,8.135l-2.321,8.432,8.669-2.26a16.38,16.38,0,0,0,24.172-14.3,16.142,16.142,0,0,0-4.782-11.51Zm2.028,11.517a13.624,13.624,0,0,1-20.542,11.637l-.493-.293-5.131,1.334,1.375-4.987-.327-.513a13.572,13.572,0,0,1,21.138-16.743,13.4,13.4,0,0,1,3.98,9.565Z"/>
        </g>
    </symbol>

    <symbol id="viber" viewBox="0 0 32.841 35.858">
        <g transform="translate(-1154.339 -45.834)">
            <path d="M1186.844,66.593c1.069-9-.513-14.677-3.367-17.246h0c-4.607-4.388-20.164-5.037-25.676.2-2.475,2.56-3.346,6.317-3.442,10.969s-.209,13.369,7.913,15.733h.008l-.008,3.611s-.055,1.463.88,1.757c1.068.347,1.552-.332,4.876-4.3a30.431,30.431,0,0,0,10.314-.784c1.123-.376,7.474-1.217,8.5-9.933Zm-18.267,8.176s-3.518,4.387-4.612,5.526c-.359.371-.751.336-.745-.4,0-.482.027-6,.027-6-6.887-1.974-6.481-9.4-6.406-13.278s.785-7.066,2.881-9.208c4.835-4.533,18.475-3.52,21.95-.254,4.248,3.767,2.736,14.407,2.745,14.77-.873,7.276-6.02,7.737-6.967,8.052a28.076,28.076,0,0,1-8.873.785Z"/>
            <path d="M1170.524,52.269a.452.452,0,0,0,0,.9c4.459.034,8.131,3.142,8.171,8.843a.437.437,0,1,0,.874-.008h0c-.048-6.142-4.057-9.7-9.043-9.738Z"/>
            <path d="M1176.389,61.07a.437.437,0,1,0,.873.021,6.046,6.046,0,0,0-5.94-6.471.453.453,0,0,0-.061.9,5.153,5.153,0,0,1,5.128,5.547Z"/>
            <path d="M1175.448,64.923a1.379,1.379,0,0,0-1.8.258l-.65.84a1.162,1.162,0,0,1-.946.371c-4.5-1.19-5.7-5.9-5.7-5.9a1.254,1.254,0,0,1,.356-.98l.812-.671a1.5,1.5,0,0,0,.25-1.862,19.346,19.346,0,0,0-2.225-3.212,1.2,1.2,0,0,0-1.615-.273h-.013c-1.291.755-2.7,2.169-2.253,3.624.772,1.535,2.19,6.426,6.71,10.123a25.782,25.782,0,0,0,6.913,3.952l.014.021c1.406.469,2.773-1,3.5-2.33v-.01a1.279,1.279,0,0,0-.257-1.651,17.5,17.5,0,0,0-3.1-2.3Z"/>
            <path d="M1171.937,57.951c1.435.084,2.131.833,2.2,2.373a.438.438,0,1,0,.874-.042c-.1-2.01-1.144-3.129-3.031-3.234a.453.453,0,0,0-.048.9Z"/>
        </g>
    </symbol>

    <symbol id="basket" viewBox="0 0 47.528 42.722">
        <g transform="translate(-1408.041 -41.584)">
            <path d="M1431,80.359a3.947,3.947,0,1,1-3.947-3.947A3.947,3.947,0,0,1,1431,80.359Zm12.035-3.947a3.947,3.947,0,1,0,3.947,3.947A3.947,3.947,0,0,0,1443.035,76.412Zm12.252-18.529-4.857,14.435a2.607,2.607,0,0,1-2.45,2.143h-24.525c-2.444,0-2.547-2.685-2.547-2.685s-2.606-19.334-2.735-20.5-1.623-2.033-1.623-2.033l-6.427-3c-3.519-1.84-1.919-5.341,0-4.536,8.15,3.844,11.935,5.737,12.179,7.251s.675,5.171.675,5.171v.023l.085-.023H1453.1C1456.728,54.124,1455.287,57.889,1455.287,57.883Z"/>
        </g>
    </symbol>

    <symbol id="user" viewBox="0 0 37.505 44.539">
        <g transform="translate(-1511.865 -40.5)">
            <path d="M1549.37,85.039h-4.513a14.246,14.246,0,0,0-28.479,0h-4.513a18.758,18.758,0,0,1,37.505,0Z"/>
            <path d="M1530.618,65.254A12.377,12.377,0,1,1,1543,52.877,12.393,12.393,0,0,1,1530.618,65.254Zm0-20.241a7.864,7.864,0,1,0,7.867,7.864A7.872,7.872,0,0,0,1530.618,45.013Z"/>
        </g>
    </symbol>


    <symbol id="copyright" viewBox="0 0 31.116 31.114">
        <g transform="translate(-58.269 -4601.039)">
            <path d="M73.824,4632.153A15.557,15.557,0,1,1,89.385,4616.6,15.56,15.56,0,0,1,73.824,4632.153Zm0-28.724a13.165,13.165,0,1,0,13.164,13.17A13.175,13.175,0,0,0,73.827,4603.429Z"/>
            <path d="M78.032,4618.565l2.11,1.081a7.166,7.166,0,1,1,.008-6.107l-2.12,1.086a4.819,4.819,0,0,0-3-2.622,4.638,4.638,0,0,0-3.018.1,4.8,4.8,0,0,0,.467,9.125A4.788,4.788,0,0,0,78.032,4618.565Z"/>
        </g>
    </symbol>

    <symbol id="checkbox" viewBox="0 0 8.616 6.408">
        <path d="M1110.882,2094.092l3.111,3.333,4.766-5.333" transform="translate(-1110.516 -2091.759)" fill="none"
              stroke="#ff1b0e" stroke-miterlimit="10" stroke-width="1"/>
    </symbol>

    <symbol id="view" viewBox="0 0 21.838 13.018">
        <path d="M4364.518,5467.524c-4.172,0-7.956,2.283-10.748,5.991a.864.864,0,0,0,0,1.032c2.792,3.712,6.576,6,10.748,6s7.956-2.283,10.748-5.991a.864.864,0,0,0,0-1.032C4372.474,5469.807,4368.691,5467.524,4364.518,5467.524Zm.3,11.092a4.593,4.593,0,1,1,4.285-4.284A4.6,4.6,0,0,1,4364.817,5478.616Zm-.138-2.117a2.473,2.473,0,1,1,2.31-2.31A2.47,2.47,0,0,1,4364.679,5476.5Z"
              transform="translate(-4353.599 -5467.524)"/>
    </symbol>

    <symbol id="calendar" viewBox="0 0 19.689 20.141">
        <g transform="translate(-4638.31 -9381.08)">
            <path d="M4656.375,9401.221h-16.443c-.089-.021-.178-.038-.265-.063a1.8,1.8,0,0,1-1.356-1.861q0-7.031,0-14.062a2.453,2.453,0,0,1,.117-.731,1.74,1.74,0,0,1,1.624-1.155v.212c0,.708,0,1.415,0,2.123a2,2,0,0,0,2.02,2.063c.406.009.813.01,1.219,0a2.009,2.009,0,0,0,2.024-2.08q0-1.062,0-2.124v-.209h5.667c0,.78,0,1.546,0,2.312a2.015,2.015,0,0,0,2.082,2.1c.374,0,.748,0,1.121,0a2,2,0,0,0,2.06-2.082c0-.708,0-1.416,0-2.124v-.261a4.987,4.987,0,0,1,.758.253,1.8,1.8,0,0,1,.99,1.74q-.006,6.99,0,13.981a3.036,3.036,0,0,1-.013.334,1.789,1.789,0,0,1-.6,1.176A2.019,2.019,0,0,1,4656.375,9401.221Zm-8.233-1.926h6.608a.806.806,0,0,0,.915-.918v-7.1a.805.805,0,0,0-.917-.916h-13.215a.81.81,0,0,0-.927.927v7.08a.811.811,0,0,0,.928.926Z"
                  fill="#999"/>
            <path d="M4654.369,9381.08a.8.8,0,0,1,.546.871c-.012,1.218,0,2.436,0,3.654,0,.587-.248.831-.839.833-.353,0-.707,0-1.061,0a.668.668,0,0,1-.715-.7c-.009-1.322-.007-2.646,0-3.968a.72.72,0,0,1,.54-.693Z"
                  fill="#999"/>
            <path d="M4643.433,9381.08a.8.8,0,0,1,.552.866c-.013,1.224,0,2.448,0,3.673,0,.564-.252.817-.813.819h-1a.7.7,0,0,1-.8-.811q0-1.434,0-2.868c0-.268.012-.537,0-.8a.786.786,0,0,1,.539-.875Z"
                  fill="#999"/>
            <path d="M4646.9,9392.979c0-.242,0-.484,0-.727a.469.469,0,0,1,.515-.513c.5,0,1-.006,1.494,0a.457.457,0,0,1,.5.485q.015.768,0,1.533a.452.452,0,0,1-.483.483c-.511.014-1.023.014-1.533,0a.468.468,0,0,1-.494-.517v-.747Z"
                  fill="#999"/>
            <path d="M4648.155,9398.231c-.249,0-.5,0-.747,0a.469.469,0,0,1-.509-.5c-.008-.5-.007-1,0-1.492a.47.47,0,0,1,.5-.514c.5-.011,1.009-.01,1.513,0a.467.467,0,0,1,.5.512c.007.5.008.994,0,1.492a.473.473,0,0,1-.507.5h-.746Z"
                  fill="#999"/>
            <path d="M4642.915,9392.988c0-.249,0-.5,0-.746a.458.458,0,0,1,.5-.5c.5-.006,1,0,1.493,0a.45.45,0,0,1,.506.477q.02.776,0,1.552a.445.445,0,0,1-.489.476q-.756.018-1.513,0a.463.463,0,0,1-.5-.528C4642.912,9393.473,4642.915,9393.231,4642.915,9392.988Z"
                  fill="#999"/>
            <path d="M4653.392,9393c0,.243,0,.485,0,.728a.453.453,0,0,1-.475.509q-.776.022-1.552,0a.443.443,0,0,1-.474-.489c-.012-.511-.013-1.022,0-1.532a.452.452,0,0,1,.5-.479q.747-.007,1.494,0a.457.457,0,0,1,.5.5C4653.4,9392.494,4653.392,9392.75,4653.392,9393Z"
                  fill="#999"/>
            <path d="M4644.168,9398.231c-.242,0-.484,0-.727,0a.469.469,0,0,1-.525-.521q-.006-.737,0-1.473a.467.467,0,0,1,.512-.516q.736-.012,1.474,0a.468.468,0,0,1,.517.512c.009.5.01,1,0,1.492a.466.466,0,0,1-.523.5C4644.653,9398.234,4644.411,9398.231,4644.168,9398.231Z"
                  fill="#999"/>
            <path d="M4653.392,9396.983c0,.241,0,.483,0,.727a.464.464,0,0,1-.5.519q-.747.012-1.493,0a.454.454,0,0,1-.5-.481c-.013-.511-.012-1.022,0-1.533a.461.461,0,0,1,.515-.492q.737-.012,1.473,0a.471.471,0,0,1,.513.533C4653.394,9396.5,4653.392,9396.74,4653.392,9396.983Z"
                  fill="#999"/>
        </g>
    </symbol>

    <symbol id="rub" viewBox="0 0 18.036 19.837">
        <path d="M10209.492,5292.049h-2.51c-.038-.014-.076-.024-.112-.041a.439.439,0,0,1-.257-.449c0-.847,0-1.694,0-2.54v-.128h-3.156a.474.474,0,0,1-.12-.012.428.428,0,0,1-.331-.476c0-.58,0-1.161,0-1.741a.591.591,0,0,1,.061-.259.454.454,0,0,1,.454-.219h3.085v-1.662h-.129c-1.018,0-2.036,0-3.056,0a.4.4,0,0,1-.409-.39c-.01-.181-.008-.363-.008-.546,0-.522,0-1.045,0-1.568a.445.445,0,0,1,.494-.492h3.114v-8.739c0-.041,0-.081,0-.122a.425.425,0,0,1,.467-.45q3.759,0,7.519,0c.286,0,.572.017.858.038a6.405,6.405,0,0,1,1.5.3,5.913,5.913,0,0,1,3.261,2.594,5.966,5.966,0,0,1,.8,2.734,7.4,7.4,0,0,1-.134,1.967,5.657,5.657,0,0,1-2.081,3.349,6.16,6.16,0,0,1-3.851,1.317c-1.656.025-3.312.008-4.969.009h-.121v1.662h7a1.129,1.129,0,0,1,.151.007.413.413,0,0,1,.4.451q0,.9,0,1.8a.423.423,0,0,1-.459.447h-7.1v.128q0,1.266,0,2.53a.414.414,0,0,1-.1.328A1.612,1.612,0,0,1,10209.492,5292.049Zm.379-10.526h.126q2.167,0,4.332,0a4,4,0,0,0,1.232-.167,2.912,2.912,0,0,0,1.924-1.76,3.454,3.454,0,0,0,.165-1.824,2.87,2.87,0,0,0-1.615-2.209,3.792,3.792,0,0,0-1.778-.356h-4.386Z"
              transform="translate(-10203.004 -5272.212)"/>
    </symbol>

    <symbol id="score" viewBox="0 0 28.875 23.461">
        <g transform="translate(-7026.864 -3212.188)">
            <g>
                <g>
                    <path d="M7055.576,3218.883l-4.511-6.316a.941.941,0,0,0-.74-.379h-18.047a.94.94,0,0,0-.74.379l-4.512,6.316-.162.487a3.617,3.617,0,0,0,3.609,3.646,3.6,3.6,0,0,1,5.414,0,3.6,3.6,0,0,1,5.414,0,3.6,3.6,0,0,1,5.414,0,3.6,3.6,0,0,1,5.414,0,3.616,3.616,0,0,0,3.61-3.646Z"
                          fill="#333"/>
                </g>
            </g>
            <g>
                <g>
                    <path d="M7052.129,3224.821a5.4,5.4,0,0,1-2.707-.73,5.53,5.53,0,0,1-5.414,0,5.529,5.529,0,0,1-5.414,0,59.488,59.488,0,0,0-9.925.378v9.375a1.805,1.805,0,0,0,1.8,1.8h14.438v-9.024h5.414v9.024h1.8a1.805,1.805,0,0,0,1.805-1.8v-9.354A5.379,5.379,0,0,1,7052.129,3224.821Zm-12.632,7.218h-7.219v-5.414h7.219Z"
                          fill="#333"/>
                </g>
            </g>
        </g>
    </symbol>
    <symbol id="truck" viewBox="0 0 33.519 25.428">
        <path d="M7367.046,3230.933H7366v-5.857a3.46,3.46,0,0,0-.59-1.927l-2.625-3.887a3.45,3.45,0,0,0-2.857-1.517h-4.069a.862.862,0,0,0-.862.862v12.326h-6.662a3.541,3.541,0,0,1,1.193,2.172h7.025a3.538,3.538,0,0,1,7,0h3.49a.432.432,0,0,0,.431-.431v-1.31A.432.432,0,0,0,7367.046,3230.933Zm-4.292-7.008h-5.37a.429.429,0,0,1-.431-.431v-2.978a.432.432,0,0,1,.431-.431h3.271a.435.435,0,0,1,.353.181l2.1,2.983A.43.43,0,0,1,7362.754,3223.925Zm-2.7,7.008a2.682,2.682,0,1,0,2.681,2.685A2.682,2.682,0,0,0,7360.056,3230.933Zm0,4.025a1.34,1.34,0,1,1,1.34-1.34A1.342,1.342,0,0,1,7360.056,3234.958Zm-22.35-4.025a.432.432,0,0,0-.431.431v1.31a.433.433,0,0,0,.431.431h4.818a3.551,3.551,0,0,1,1.19-2.172Zm8.318,0a2.682,2.682,0,1,0,2.68,2.685A2.684,2.684,0,0,0,7346.024,3230.933Zm0,4.025a1.34,1.34,0,1,1,1.34-1.34A1.342,1.342,0,0,1,7346.024,3234.958Zm6.447-19.885h-5a7.219,7.219,0,0,1,.375,2.314,7.382,7.382,0,0,1-9.516,7.064v4.762a.432.432,0,0,0,.431.431h14.567a.433.433,0,0,0,.431-.431v-12.847A1.292,1.292,0,0,0,7352.471,3215.073Zm-12-4.2a6.516,6.516,0,1,0,6.516,6.516A6.516,6.516,0,0,0,7340.474,3210.87Zm0,11.549a5.033,5.033,0,1,1,5.033-5.033A5.033,5.033,0,0,1,7340.474,3222.419Zm1.922-3.97a.663.663,0,0,1-.169-.022l-2.1-.566a.648.648,0,0,1-.478-.625V3214a.646.646,0,0,1,1.293,0v2.737l1.622.437a.647.647,0,0,1-.168,1.271Z"
              transform="translate(-7333.958 -3210.87)" fill="#333"/>
    </symbol>

    <symbol id="info" viewBox="0 0 29.315 29.315">
        <g transform="translate(-7010.315 -3488.029)">
            <path d="M7024.973,3488.029a14.657,14.657,0,1,0,14.657,14.657A14.674,14.674,0,0,0,7024.973,3488.029Zm0,26.65a11.992,11.992,0,1,1,11.992-11.993A12.006,12.006,0,0,1,7024.973,3514.679Z"/>
            <path d="M7024.972,3494.247a1.776,1.776,0,1,0,1.777,1.777A1.779,1.779,0,0,0,7024.972,3494.247Z"/>
            <path d="M7024.973,3500.465a1.333,1.333,0,0,0-1.333,1.333v7.995a1.333,1.333,0,0,0,2.665,0V3501.8A1.332,1.332,0,0,0,7024.973,3500.465Z"/>
        </g>
    </symbol>

</svg>