<svg xmlns="http://www.w3.org/2000/svg" display="none">

    <symbol id="arrow-left" viewBox="0 0 17.626 29.376">
        <path d="M341.419,3308.176a2.929,2.929,0,0,1-2.077-.861l-11.75-11.75a2.936,2.936,0,0,1,0-4.154l11.75-11.751a2.937,2.937,0,0,1,4.154,4.154l-9.672,9.674,9.672,9.673a2.938,2.938,0,0,1-2.077,5.015Z"
              transform="translate(-326.731 -3278.8)"/>
    </symbol>

    <symbol id="arrow-right" viewBox="0 0 17.625 29.376">
        <path d="M1250.2,3278.8a2.928,2.928,0,0,1,2.077.86l11.751,11.751a2.938,2.938,0,0,1,0,4.154l-11.751,11.75a2.937,2.937,0,0,1-4.154-4.154l9.673-9.673-9.673-9.674a2.937,2.937,0,0,1,2.077-5.014Z"
              transform="translate(-1247.267 -3278.8)"/>
    </symbol>


    <symbol id="share" viewBox="0 0 21.926 23.388">
        <path d="M1122.49,4605.468a4.094,4.094,0,0,0-3.3,1.679l-6.48-3.317a3.884,3.884,0,0,0-.121-2.685l6.781-4.08a4.1,4.1,0,1,0-.709-1.173l-6.8,4.092a4.1,4.1,0,1,0,.259,5.082l6.458,3.307a4.054,4.054,0,0,0-.2,1.207,4.111,4.111,0,1,0,4.111-4.112Z"
              transform="translate(-1104.675 -4590.303)"/>
    </symbol>

    <symbol id="instagram" viewBox="0 0 38.3 38.308">
        <g transform="translate(-1134.843 -4496.625)">
            <path d="M1173.045,4507.888a14.024,14.024,0,0,0-.89-4.648,9.807,9.807,0,0,0-5.6-5.6,14.023,14.023,0,0,0-4.647-.891c-2.051-.1-2.7-.12-7.9-.12s-5.852.023-7.9.113a14.006,14.006,0,0,0-4.647.89,9.806,9.806,0,0,0-5.6,5.6,14.031,14.031,0,0,0-.891,4.647c-.1,2.051-.119,2.7-.119,7.9s.022,5.852.112,7.9a14,14,0,0,0,.89,4.647,9.816,9.816,0,0,0,5.6,5.6,14.016,14.016,0,0,0,4.648.89c2.042.09,2.694.113,7.9.113s5.852-.023,7.895-.113a13.976,13.976,0,0,0,4.647-.89,9.8,9.8,0,0,0,5.6-5.6,14.037,14.037,0,0,0,.89-4.647c.09-2.043.113-2.694.113-7.9S1173.135,4509.931,1173.045,4507.888Zm-3.449,15.64a10.516,10.516,0,0,1-.659,3.555,6.356,6.356,0,0,1-3.637,3.637,10.547,10.547,0,0,1-3.555.658c-2.02.09-2.626.112-7.737.112s-5.725-.022-7.738-.112a10.5,10.5,0,0,1-3.555-.658,6.318,6.318,0,0,1-3.629-3.63,10.518,10.518,0,0,1-.659-3.554c-.09-2.021-.112-2.627-.112-7.738s.022-5.725.112-7.738a10.49,10.49,0,0,1,.659-3.555,5.81,5.81,0,0,1,1.437-2.2,5.942,5.942,0,0,1,2.2-1.429,10.541,10.541,0,0,1,3.554-.659c2.021-.089,2.627-.112,7.738-.112s5.725.023,7.738.112a10.507,10.507,0,0,1,3.555.659,6.313,6.313,0,0,1,3.629,3.629,10.559,10.559,0,0,1,.659,3.555c.089,2.02.112,2.626.112,7.738S1169.685,4521.508,1169.6,4523.528Z"/>
            <path d="M1154,4505.942a9.841,9.841,0,1,0,9.841,9.841A9.844,9.844,0,0,0,1154,4505.942Zm0,16.224a6.384,6.384,0,1,1,6.383-6.383A6.383,6.383,0,0,1,1154,4522.166Z"/>
            <path d="M1166.527,4505.553a2.3,2.3,0,1,1-2.3-2.3A2.3,2.3,0,0,1,1166.527,4505.553Z"/>
        </g>
    </symbol>


    <symbol id="vk" viewBox="0 0 51.016 29.76">
        <g transform="translate(-1244.8 -4499.903)">
            <path d="M1287.134,4516.968c-.825-1.042-.589-1.5,0-2.436.011-.011,6.82-9.419,7.521-12.61l0,0c.349-1.163,0-2.017-1.685-2.017H1287.4a2.4,2.4,0,0,0-2.426,1.554s-2.84,6.8-6.857,11.2c-1.3,1.274-1.9,1.682-2.6,1.682-.349,0-.891-.408-.891-1.571V4501.92c0-1.4-.4-2.017-1.573-2.017h-8.771a1.334,1.334,0,0,0-1.42,1.256c0,1.322,2.009,1.626,2.217,5.346v8.072c0,1.768-.321,2.093-1.033,2.093-1.9,0-6.5-6.825-9.226-14.637-.55-1.516-1.088-2.128-2.519-2.128h-5.58c-1.592,0-1.913.733-1.913,1.554,0,1.449,1.9,8.658,8.818,18.181,4.613,6.5,11.109,10.023,17.018,10.023,3.552,0,3.986-.782,3.986-2.128,0-6.211-.321-6.8,1.458-6.8.825,0,2.245.408,5.561,3.544,3.791,3.718,4.413,5.382,6.535,5.382h5.578c1.59,0,2.4-.782,1.932-2.326C1294.625,4524.091,1287.457,4517.414,1287.134,4516.968Z"/>
        </g>
    </symbol>

    <symbol id="youtube" viewBox="0 0 45.255 31.686">
        <g transform="translate(-1363.068 -4499.936)">
            <path d="M1407.391,4504.894a5.668,5.668,0,0,0-3.989-3.989c-3.541-.969-17.707-.969-17.707-.969s-14.165,0-17.706.932a5.786,5.786,0,0,0-3.989,4.026c-.932,3.541-.932,10.885-.932,10.885s0,7.381.932,10.885a5.671,5.671,0,0,0,3.989,3.989c3.578.969,17.707.969,17.707.969s14.165,0,17.706-.932a5.67,5.67,0,0,0,3.99-3.989c.931-3.541.931-10.885.931-10.885S1408.361,4508.435,1407.391,4504.894Zm-26.206,17.669V4509l11.78,6.784Z"/>
        </g>
    </symbol>

    <symbol id="telegram" viewBox="0 0 39.842 33.203">
        <g transform="translate(-1480.036 -4499.049)">
            <path d="M1495.669,4520.931l-.659,9.271a2.306,2.306,0,0,0,1.841-.892l4.421-4.225,9.161,6.709c1.68.936,2.863.443,3.316-1.546l6.013-28.175,0,0c.533-2.484-.9-3.455-2.535-2.846l-35.344,13.532c-2.412.936-2.375,2.281-.41,2.89l9.036,2.811,20.989-13.133c.988-.654,1.886-.292,1.147.362Z"/>
        </g>
    </symbol>


    <symbol id="settings" viewBox="0 0 40.349 39.549">
        <g transform="translate(-1107.109 -4259.36)">
            <path d="M1143.393,4261.665c-1.934.752-3.716,1.414-5.466,2.151a1.414,1.414,0,0,0-.723.876c-.274,1.319-.474,2.657-.632,4a1.213,1.213,0,0,0,.348.917c1.043.9,2.118,1.773,3.23,2.588a1.307,1.307,0,0,0,1.052.128c1.787-.64,3.549-1.346,5.428-2.072a7.635,7.635,0,0,1-.093.867,9.463,9.463,0,0,1-11.679,7.073,1.734,1.734,0,0,0-2.026.669q-5.351,6.125-10.721,12.228c-1.681,1.913-3.35,3.836-5.07,5.713a5.8,5.8,0,0,1-6.079,1.887c-4.055-1.076-5.215-6.362-2-9.412,2.937-2.784,6.035-5.4,9.064-8.085,3.269-2.9,6.548-5.783,9.791-8.71a1.242,1.242,0,0,0,.185-1.025,9.572,9.572,0,0,1,15.388-9.788Zm-11.324,6.482c-.1,1.09.544,1.195,1.214,1.3a.9.9,0,0,0,1.183-.826c.238-1.451.47-2.9.668-4.36.1-.755-.387-.987-1.046-1.1s-1.2-.044-1.332.71C1132.493,4265.351,1132.277,4266.837,1132.069,4268.147Zm-19.57,27.424a2.079,2.079,0,0,0,2.077-2.022,2.108,2.108,0,0,0-2.1-2.1,2.075,2.075,0,0,0-2.017,2.083A2.039,2.039,0,0,0,1112.5,4295.571Z"/>
            <path d="M1128.586,4286.1l5.719-6.432c.452.426.894.823,1.315,1.242q5.281,5.265,10.557,10.538c1.715,1.714,1.707,3.388-.012,5.116-.5.5-.98,1.019-1.505,1.49a3.029,3.029,0,0,1-4.184,0C1136.513,4294.121,1132.6,4290.14,1128.586,4286.1Zm15.645,5.837a7.253,7.253,0,0,0-.59-.743q-4.158-4.174-8.329-8.335c-.13-.13-.247-.32-.4-.366-.261-.075-.729-.161-.791-.056a1.751,1.751,0,0,0-.174.976c.013.168.261.323.412.475q4.164,4.168,8.331,8.332a2.276,2.276,0,0,0,.561.466C1143.714,4292.915,1144.228,4292.586,1144.231,4291.936Zm-12.671-6.781c-.232.189-.6.362-.593.511a1.693,1.693,0,0,0,.368,1.027c2.813,2.858,5.655,5.688,8.492,8.522.355.355.748.754,1.248.278s.142-.884-.221-1.248q-4.286-4.287-8.576-8.568A6.142,6.142,0,0,0,1131.56,4285.155Z"/>
            <path d="M1107.823,4260.768l1.56-1.408c1.541.969,3.169,1.984,4.784,3.02a1.126,1.126,0,0,1,.368.513,10.531,10.531,0,0,0,2.594,3.4c2.51,2.469,4.985,4.974,7.545,7.536l-2.487,2.2c-1.776-1.793-3.518-3.555-5.264-5.312q-1.458-1.467-2.929-2.921a3.591,3.591,0,0,0-1.032-.893,7.024,7.024,0,0,1-3.532-3.547C1108.943,4262.484,1108.374,4261.651,1107.823,4260.768Z"/>
        </g>
    </symbol>

    <symbol id="mail" viewBox="0 0 33.364 25.023">
        <g transform="translate(-1099.851 -4004.8)">
            <g>
                <g>
                    <g>
                        <path d="M1100.547,4006.831c4.579,3.878,12.614,10.7,14.976,12.827a1.393,1.393,0,0,0,2.018,0c2.363-2.129,10.4-8.952,14.977-12.83a.7.7,0,0,0,.1-.96,2.763,2.763,0,0,0-2.182-1.071h-27.8a2.761,2.761,0,0,0-2.182,1.072A.694.694,0,0,0,1100.547,4006.831Z"/>
                        <path d="M1132.812,4008.932a.691.691,0,0,0-.742.1c-5.078,4.3-11.559,9.823-13.6,11.66a2.815,2.815,0,0,1-3.88,0c-2.174-1.959-9.452-8.146-13.6-11.659a.694.694,0,0,0-1.144.53v17.48a2.782,2.782,0,0,0,2.78,2.78h27.8a2.783,2.783,0,0,0,2.781-2.78v-17.48A.7.7,0,0,0,1132.812,4008.932Z"/>
                    </g>
                </g>
            </g>
        </g>
    </symbol>

    <symbol id="phone" viewBox="0 0 35.083 35.083">
        <g transform="translate(-1098.132 -3939.811)">
            <g>
                <g>
                    <g>
                        <path d="M1124.805,3963.019a2.458,2.458,0,0,0-3.716,0c-.869.861-1.738,1.723-2.592,2.6a.511.511,0,0,1-.715.131c-.563-.307-1.161-.555-1.7-.891a26.949,26.949,0,0,1-6.5-5.913,15.422,15.422,0,0,1-2.329-3.73.535.535,0,0,1,.132-.687c.868-.839,1.715-1.7,2.569-2.562a2.468,2.468,0,0,0-.007-3.8c-.679-.686-1.358-1.358-2.037-2.044-.7-.7-1.394-1.409-2.1-2.1a2.474,2.474,0,0,0-3.716.007c-.876.861-1.716,1.745-2.606,2.592a4.227,4.227,0,0,0-1.329,2.854,12.087,12.087,0,0,0,.934,5.205,31.634,31.634,0,0,0,5.614,9.352,34.751,34.751,0,0,0,11.506,9,16.643,16.643,0,0,0,6.373,1.854,4.67,4.67,0,0,0,4.008-1.526c.745-.832,1.584-1.591,2.373-2.387a2.484,2.484,0,0,0,.014-3.782Q1126.9,3965.1,1124.805,3963.019Z"/>
                        <path d="M1123.41,3957.2l2.694-.46a12.09,12.09,0,0,0-10.228-9.921l-.38,2.708a9.348,9.348,0,0,1,7.914,7.673Z"/>
                        <path d="M1127.623,3945.49a19.857,19.857,0,0,0-11.389-5.679l-.38,2.708a17.334,17.334,0,0,1,14.667,14.214l2.694-.46A20.012,20.012,0,0,0,1127.623,3945.49Z"/>
                    </g>
                </g>
            </g>
        </g>
    </symbol>

    <symbol id="whatsapp" viewBox="0 0 32.841 32.842">
        <g transform="translate(-1014.178 -47.342)">
            <path d="M1038.134,66.921l-.012.1c-3.009-1.5-3.324-1.7-3.712-1.116-.27.4-1.056,1.319-1.292,1.59s-.478.287-.884.1a11.087,11.087,0,0,1-3.288-2.032,12.417,12.417,0,0,1-2.272-2.832c-.4-.693.438-.791,1.2-2.236a.75.75,0,0,0-.034-.717c-.1-.206-.919-2.217-1.261-3.019s-.667-.7-.92-.7a2.039,2.039,0,0,0-1.872.471c-2.208,2.427-1.652,4.932.238,7.594,3.714,4.861,5.693,5.756,9.311,7a5.658,5.658,0,0,0,2.572.166,4.215,4.215,0,0,0,2.759-1.951,3.382,3.382,0,0,0,.246-1.95c-.1-.185-.369-.288-.78-.472Z"/>
            <path d="M1042.257,52.063c-10.521-10.172-27.934-2.795-27.941,11.554a16.19,16.19,0,0,0,2.183,8.135l-2.321,8.432,8.669-2.26a16.38,16.38,0,0,0,24.172-14.3,16.142,16.142,0,0,0-4.782-11.51Zm2.028,11.517a13.624,13.624,0,0,1-20.542,11.637l-.493-.293-5.131,1.334,1.375-4.987-.327-.513a13.572,13.572,0,0,1,21.138-16.743,13.4,13.4,0,0,1,3.98,9.565Z"/>
        </g>
    </symbol>

    <symbol id="viber" viewBox="0 0 32.841 35.858">
        <g transform="translate(-1154.339 -45.834)">
            <path d="M1186.844,66.593c1.069-9-.513-14.677-3.367-17.246h0c-4.607-4.388-20.164-5.037-25.676.2-2.475,2.56-3.346,6.317-3.442,10.969s-.209,13.369,7.913,15.733h.008l-.008,3.611s-.055,1.463.88,1.757c1.068.347,1.552-.332,4.876-4.3a30.431,30.431,0,0,0,10.314-.784c1.123-.376,7.474-1.217,8.5-9.933Zm-18.267,8.176s-3.518,4.387-4.612,5.526c-.359.371-.751.336-.745-.4,0-.482.027-6,.027-6-6.887-1.974-6.481-9.4-6.406-13.278s.785-7.066,2.881-9.208c4.835-4.533,18.475-3.52,21.95-.254,4.248,3.767,2.736,14.407,2.745,14.77-.873,7.276-6.02,7.737-6.967,8.052a28.076,28.076,0,0,1-8.873.785Z"/>
            <path d="M1170.524,52.269a.452.452,0,0,0,0,.9c4.459.034,8.131,3.142,8.171,8.843a.437.437,0,1,0,.874-.008h0c-.048-6.142-4.057-9.7-9.043-9.738Z"/>
            <path d="M1176.389,61.07a.437.437,0,1,0,.873.021,6.046,6.046,0,0,0-5.94-6.471.453.453,0,0,0-.061.9,5.153,5.153,0,0,1,5.128,5.547Z"/>
            <path d="M1175.448,64.923a1.379,1.379,0,0,0-1.8.258l-.65.84a1.162,1.162,0,0,1-.946.371c-4.5-1.19-5.7-5.9-5.7-5.9a1.254,1.254,0,0,1,.356-.98l.812-.671a1.5,1.5,0,0,0,.25-1.862,19.346,19.346,0,0,0-2.225-3.212,1.2,1.2,0,0,0-1.615-.273h-.013c-1.291.755-2.7,2.169-2.253,3.624.772,1.535,2.19,6.426,6.71,10.123a25.782,25.782,0,0,0,6.913,3.952l.014.021c1.406.469,2.773-1,3.5-2.33v-.01a1.279,1.279,0,0,0-.257-1.651,17.5,17.5,0,0,0-3.1-2.3Z"/>
            <path d="M1171.937,57.951c1.435.084,2.131.833,2.2,2.373a.438.438,0,1,0,.874-.042c-.1-2.01-1.144-3.129-3.031-3.234a.453.453,0,0,0-.048.9Z"/>
        </g>
    </symbol>

    <symbol id="basket" viewBox="0 0 47.528 42.722">
        <g transform="translate(-1408.041 -41.584)">
            <path d="M1431,80.359a3.947,3.947,0,1,1-3.947-3.947A3.947,3.947,0,0,1,1431,80.359Zm12.035-3.947a3.947,3.947,0,1,0,3.947,3.947A3.947,3.947,0,0,0,1443.035,76.412Zm12.252-18.529-4.857,14.435a2.607,2.607,0,0,1-2.45,2.143h-24.525c-2.444,0-2.547-2.685-2.547-2.685s-2.606-19.334-2.735-20.5-1.623-2.033-1.623-2.033l-6.427-3c-3.519-1.84-1.919-5.341,0-4.536,8.15,3.844,11.935,5.737,12.179,7.251s.675,5.171.675,5.171v.023l.085-.023H1453.1C1456.728,54.124,1455.287,57.889,1455.287,57.883Z"/>
        </g>
    </symbol>

    <symbol id="user" viewBox="0 0 37.505 44.539">
        <g transform="translate(-1511.865 -40.5)">
            <path d="M1549.37,85.039h-4.513a14.246,14.246,0,0,0-28.479,0h-4.513a18.758,18.758,0,0,1,37.505,0Z"/>
            <path d="M1530.618,65.254A12.377,12.377,0,1,1,1543,52.877,12.393,12.393,0,0,1,1530.618,65.254Zm0-20.241a7.864,7.864,0,1,0,7.867,7.864A7.872,7.872,0,0,0,1530.618,45.013Z"/>
        </g>
    </symbol>


    <symbol id="copyright" viewBox="0 0 31.116 31.114">
        <g transform="translate(-58.269 -4601.039)">
            <path d="M73.824,4632.153A15.557,15.557,0,1,1,89.385,4616.6,15.56,15.56,0,0,1,73.824,4632.153Zm0-28.724a13.165,13.165,0,1,0,13.164,13.17A13.175,13.175,0,0,0,73.827,4603.429Z"/>
            <path d="M78.032,4618.565l2.11,1.081a7.166,7.166,0,1,1,.008-6.107l-2.12,1.086a4.819,4.819,0,0,0-3-2.622,4.638,4.638,0,0,0-3.018.1,4.8,4.8,0,0,0,.467,9.125A4.788,4.788,0,0,0,78.032,4618.565Z"/>
        </g>
    </symbol>

    <symbol id="checkbox" viewBox="0 0 8.616 6.408">
        <path d="M1110.882,2094.092l3.111,3.333,4.766-5.333" transform="translate(-1110.516 -2091.759)" fill="none" stroke="#ff1b0e" stroke-miterlimit="10" stroke-width="1"/>
    </symbol>

</svg>